<svg width="86" height="86" viewBox="0 0 86 86" fill="none" xmlns="http://www.w3.org/2000/svg">
<path id="Vector" d="M27 3.00478V67.4454M55 18.5594V80.7779M16.012 8.32002L11.104 11.4843C7.148 14.0308 5.172 15.3063 4.088 17.4261C3 19.546 3 22.1236 3 27.2878V63.5701C3 70.3519 3 73.7472 4.368 75.6316C5.28 76.8848 6.556 77.7292 7.968 78.0092C10.088 78.4314 12.688 76.7559 17.88 73.4095C21.408 71.1385 24.8 68.7742 29.02 69.4186C30.94 69.7075 32.768 70.7207 36.432 72.7428L51.684 81.169C54.984 82.9911 55.016 83 58.684 83H67C74.544 83 78.312 83 80.656 80.3379C83 77.6803 83 73.3961 83 64.8278V34.874C83 26.3101 83 22.0303 80.656 19.3638C78.312 16.7062 74.544 16.7062 67 16.7062H58.684C55.016 16.7062 54.984 16.6973 51.684 14.8752L38.36 7.51562C32.796 4.44025 30.012 2.90257 27.048 3.00478C24.084 3.107 21.4 4.84912 16.012 8.32002Z" stroke="#2E4C6E" stroke-width="5" stroke-linecap="round" stroke-linejoin="round"/>
</svg>
