<svg width="80" height="80" viewBox="0 0 80 80" fill="none" xmlns="http://www.w3.org/2000/svg">
<path id="Vector" d="M0 8.75105C0 3.92047 3.92 0 8.75 0H71.25C76.08 0 80 3.92047 80 8.75105V56.2567C80 58.5777 79.0781 60.8035 77.4372 62.4447C75.7962 64.0858 73.5706 65.0078 71.25 65.0078H40.3L27.435 77.8743C26.4153 78.8903 25.1176 79.5817 23.7056 79.8612C22.2936 80.1408 20.8304 79.996 19.5006 79.4452C18.1707 78.8943 17.0336 77.9621 16.2327 76.7659C15.4318 75.5698 15.0029 74.1633 15 72.7237V65.0078H8.75C6.42936 65.0078 4.20376 64.0858 2.56282 62.4447C0.921872 60.8035 0 58.5777 0 56.2567L0 8.75105ZM8.75 7.5009C8.41848 7.5009 8.10054 7.63261 7.86612 7.86706C7.6317 8.10151 7.5 8.41949 7.5 8.75105V56.2567C7.5 56.9468 8.06 57.5069 8.75 57.5069H18.75C19.7446 57.5069 20.6984 57.902 21.4017 58.6054C22.1049 59.3087 22.5 60.2627 22.5 61.2573V72.2086L36.1 58.607C36.8026 57.9035 37.7558 57.5078 38.75 57.5069H71.25C71.5815 57.5069 71.8995 57.3752 72.1339 57.1407C72.3683 56.9063 72.5 56.5883 72.5 56.2567V8.75105C72.5 8.41949 72.3683 8.10151 72.1339 7.86706C71.8995 7.63261 71.5815 7.5009 71.25 7.5009H8.75ZM43.75 18.7522V31.2537C43.75 32.2484 43.3549 33.2024 42.6516 33.9057C41.9484 34.6091 40.9946 35.0042 40 35.0042C39.0054 35.0042 38.0516 34.6091 37.3484 33.9057C36.6451 33.2024 36.25 32.2484 36.25 31.2537V18.7522C36.25 17.7576 36.6451 16.8036 37.3484 16.1003C38.0516 15.3969 39.0054 15.0018 40 15.0018C40.9946 15.0018 41.9484 15.3969 42.6516 16.1003C43.3549 16.8036 43.75 17.7576 43.75 18.7522ZM45 45.0054C45 46.3316 44.4732 47.6036 43.5355 48.5413C42.5979 49.4791 41.3261 50.006 40 50.006C38.6739 50.006 37.4021 49.4791 36.4645 48.5413C35.5268 47.6036 35 46.3316 35 45.0054C35 43.6791 35.5268 42.4072 36.4645 41.4694C37.4021 40.5316 38.6739 40.0048 40 40.0048C41.3261 40.0048 42.5979 40.5316 43.5355 41.4694C44.4732 42.4072 45 43.6791 45 45.0054Z" fill="#2E4C6E"/>
</svg>
